<?xml version="1.0" encoding="UTF-8" standalone="no"?>
<!-- Created with Inkscape (http://www.inkscape.org/) -->

<svg
   xmlns:dc="http://purl.org/dc/elements/1.1/"
   xmlns:cc="http://creativecommons.org/ns#"
   xmlns:rdf="http://www.w3.org/1999/02/22-rdf-syntax-ns#"
   xmlns:svg="http://www.w3.org/2000/svg"
   xmlns="http://www.w3.org/2000/svg"
   xmlns:sodipodi="http://sodipodi.sourceforge.net/DTD/sodipodi-0.dtd"
   xmlns:inkscape="http://www.inkscape.org/namespaces/inkscape"
   width="210mm"
   height="297mm"
   viewBox="0 0 210 297"
   version="1.1"
   id="svg1292"
   inkscape:version="0.92.2 (5c3e80d, 2017-08-06)"
   sodipodi:docname="GroupLogoTriDye.svg">
  <defs
     id="defs1286" />
  <sodipodi:namedview
     id="base"
     pagecolor="#ffffff"
     bordercolor="#666666"
     borderopacity="1.0"
     inkscape:pageopacity="0.0"
     inkscape:pageshadow="2"
     inkscape:zoom="0.49497475"
     inkscape:cx="-40.355353"
     inkscape:cy="773.35819"
     inkscape:document-units="mm"
     inkscape:current-layer="layer1"
     showgrid="false"
     showguides="false"
     inkscape:window-width="1920"
     inkscape:window-height="1017"
     inkscape:window-x="-8"
     inkscape:window-y="1072"
     inkscape:window-maximized="1"
     inkscape:snap-global="false" />
  <metadata
     id="metadata1289">
    <rdf:RDF>
      <cc:Work
         rdf:about="">
        <dc:format>image/svg+xml</dc:format>
        <dc:type
           rdf:resource="http://purl.org/dc/dcmitype/StillImage" />
        <dc:title></dc:title>
      </cc:Work>
    </rdf:RDF>
  </metadata>
  <g
     inkscape:label="Layer 1"
     inkscape:groupmode="layer"
     id="layer1">
    <path
       style="opacity:1;fill:#d4aa00;fill-opacity:1;stroke:#aa8800;stroke-width:1.35803831;stroke-linecap:round;stroke-linejoin:miter;stroke-miterlimit:4;stroke-dasharray:none;stroke-dashoffset:0;stroke-opacity:1;paint-order:stroke markers fill"
       d="m 116.18225,129.18374 a 17.779054,17.779054 0 0 0 0.71631,-25.13312 17.779054,17.779054 0 0 0 -0.34944,-0.33456 10.28229,10.28229 0 0 0 -0.0853,-0.10003 10.28229,10.28229 0 0 0 -14.53512,-0.41447 10.28229,10.28229 0 0 0 -0.41484,14.53547 10.28229,10.28229 0 0 0 6.13401,3.1286 11.257334,11.257334 0 0 1 -0.25228,0.0272 11.257334,11.257334 0 0 1 -0.77404,0.005 17.779054,17.779054 0 0 1 0.49495,0.41109 17.779054,17.779054 0 0 1 0.89564,0.88351 17.779054,17.779054 0 0 1 1.15427,1.35147 17.779054,17.779054 0 0 1 1.01337,1.45968 17.779054,17.779054 0 0 1 0.86337,1.55374 17.779054,17.779054 0 0 1 0.70286,1.63215 17.779054,17.779054 0 0 1 0.53694,1.69431 17.779054,17.779054 0 0 1 0.36531,1.73913 17.779054,17.779054 0 0 1 0.0133,0.12246 17.779054,17.779054 0 0 0 3.52061,-2.56195 z"
       id="path2053-8-0"
       inkscape:connector-curvature="0"
       inkscape:export-xdpi="96"
       inkscape:export-ydpi="96" />
    <path
       style="opacity:1;fill:#ffffff;fill-opacity:1;stroke:#ffcc00;stroke-width:1.32291663;stroke-linecap:round;stroke-linejoin:miter;stroke-miterlimit:4;stroke-dasharray:none;stroke-dashoffset:0;stroke-opacity:1;paint-order:stroke markers fill"
       d="m 19.598284,184.19186 a 11.257335,11.257335 0 0 1 -0.0248,0.50126 11.257335,11.257335 0 0 1 -0.16847,1.11259 11.257335,11.257335 0 0 1 -0.27853,1.09038 11.257335,11.257335 0 0 1 -0.38551,1.0573 11.257335,11.257335 0 0 1 -0.48938,1.01285 11.257335,11.257335 0 0 1 -0.58859,0.95964 11.257335,11.257335 0 0 1 -0.68058,0.89555 11.257335,11.257335 0 0 1 -0.76739,0.8232 11.257335,11.257335 0 0 1 -0.84543,0.74311 11.257335,11.257335 0 0 1 -0.91519,0.65422 11.257335,11.257335 0 0 1 -0.97617,0.56018 11.257335,11.257335 0 0 1 -1.02681,0.4594 11.257335,11.257335 0 0 1 -1.06815,0.35502 11.257335,11.257335 0 0 1 -1.09761,0.2465 11.257335,11.257335 0 0 1 -1.1172428,0.13539 11.257335,11.257335 0 0 1 -0.796333,0.0284 11.257335,11.257335 0 0 1 -1.123963,-0.0563 11.257335,11.257335 0 0 1 -1.112594,-0.16846 11.257335,11.257335 0 0 1 -1.090372,-0.27802 11.257335,11.257335 0 0 1 -1.056782,-0.38603 11.257335,11.257335 0 0 1 -1.013376,-0.48937 11.257335,11.257335 0 0 1 -0.959114,-0.58808 11.257335,11.257335 0 0 1 -0.01654,-0.0129 17.779054,17.779054 0 0 0 12.9304768,5.60948 17.779054,17.779054 0 0 0 14.59963,-7.64243 17.779054,17.779054 0 0 1 -0.93586,-0.23874 17.779054,17.779054 0 0 1 -1.66915,-0.60979 17.779054,17.779054 0 0 1 -1.60042,-0.77307 17.779054,17.779054 0 0 1 -1.51515,-0.92863 17.779054,17.779054 0 0 1 -1.4149,-1.07539 17.779054,17.779054 0 0 1 -1.30018,-1.21129 17.779054,17.779054 0 0 1 -1.17306,-1.33532 17.779054,17.779054 0 0 1 -0.32246,-0.45062 z"
       id="path2199"
       inkscape:connector-curvature="0" />
    <g
       id="g2272"
       transform="translate(-45.735119,38.175595)"
       inkscape:export-xdpi="96"
       inkscape:export-ydpi="96">
      <path
         transform="rotate(60,62.08906,104.78142)"
         d="m 82.029498,51.515309 c -3.227157,5.589601 -37.112311,5.589601 -40.339468,0 -3.227157,-5.5896 13.715419,-34.935004 20.169734,-34.935004 6.454315,0 23.396892,29.345404 20.169734,34.935004 z"
         inkscape:randomized="0"
         inkscape:rounded="0.16"
         inkscape:flatsided="true"
         sodipodi:arg2="1.5707963"
         sodipodi:arg1="0.52359878"
         sodipodi:r2="20.169733"
         sodipodi:r1="23.290003"
         sodipodi:cy="39.870308"
         sodipodi:cx="61.859764"
         sodipodi:sides="3"
         id="path1853"
         style="opacity:1;fill:#ffffff;fill-opacity:1;stroke:#999999;stroke-width:7.77400017;stroke-linecap:round;stroke-linejoin:miter;stroke-miterlimit:4;stroke-dasharray:none;stroke-dashoffset:0;stroke-opacity:1;paint-order:stroke markers fill"
         sodipodi:type="star" />
      <g
         transform="translate(56.318452,38.553573)"
         id="g1948">
        <text
           xml:space="preserve"
           style="font-style:normal;font-variant:normal;font-weight:normal;font-stretch:normal;font-size:10.58333302px;line-height:1.25;font-family:Bungee;-inkscape-font-specification:'Bungee, Normal';font-variant-ligatures:normal;font-variant-caps:normal;font-variant-numeric:normal;font-feature-settings:normal;text-align:center;letter-spacing:0px;word-spacing:0px;writing-mode:lr-tb;text-anchor:middle;fill:#000000;fill-opacity:1;stroke:none;stroke-width:7.77400017;stroke-miterlimit:4;stroke-dasharray:none"
           x="62.010693"
           y="32.097912"
           id="text1845"><tspan
             sodipodi:role="line"
             id="tspan1851"
             style="line-height:0;stroke-width:7.77400017;stroke-miterlimit:4;stroke-dasharray:none"
             x="62.010693"
             y="32.097912">TRI</tspan></text>
        <text
           xml:space="preserve"
           style="font-style:normal;font-variant:normal;font-weight:normal;font-stretch:normal;font-size:10.58333302px;line-height:1.25;font-family:Bungee;-inkscape-font-specification:'Bungee, Normal';font-variant-ligatures:normal;font-variant-caps:normal;font-variant-numeric:normal;font-feature-settings:normal;text-align:center;letter-spacing:0px;word-spacing:0px;writing-mode:lr-tb;text-anchor:middle;fill:#000000;fill-opacity:1;stroke:none;stroke-width:7.77400017;stroke-miterlimit:4;stroke-dasharray:none"
           x="61.766365"
           y="41.229816"
           id="text1845-6"><tspan
             sodipodi:role="line"
             id="tspan1851-4"
             style="line-height:0;stroke-width:7.77400017;stroke-miterlimit:4;stroke-dasharray:none"
             x="61.766365"
             y="41.229816">DYE</tspan></text>
      </g>
    </g>
    <g
       id="g2113">
      <circle
         r="17.779055"
         cy="97.570312"
         cx="-49.562126"
         id="path2053-6-1"
         style="opacity:1;fill:#ffffff;fill-opacity:1;stroke:#ffcc00;stroke-width:4.69635487;stroke-linecap:round;stroke-linejoin:miter;stroke-miterlimit:4;stroke-dasharray:none;stroke-dashoffset:0;stroke-opacity:1;paint-order:stroke markers fill" />
      <circle
         r="10.016369"
         cy="101.25558"
         cx="-57.972095"
         id="path2053-2"
         style="opacity:1;fill:#ffffff;fill-opacity:1;stroke:#ffcc00;stroke-width:2.64583325;stroke-linecap:round;stroke-linejoin:miter;stroke-miterlimit:4;stroke-dasharray:none;stroke-dashoffset:0;stroke-opacity:1;paint-order:stroke markers fill" />
      <circle
         r="17.779055"
         cy="90.483253"
         cx="-29.056921"
         id="path2053-6-6-5"
         style="opacity:1;fill:#ffffff;fill-opacity:1;stroke:#ffcc00;stroke-width:4.69635487;stroke-linecap:round;stroke-linejoin:miter;stroke-miterlimit:4;stroke-dasharray:none;stroke-dashoffset:0;stroke-opacity:1;paint-order:stroke markers fill" />
    </g>
    <g
       id="g2185"
       transform="translate(-68.035714,-31.561012)">
      <circle
         r="17.779055"
         cy="183.93788"
         cx="21.724184"
         id="path2053-6-5"
         style="opacity:1;fill:#ffffff;fill-opacity:1;stroke:#ffcc00;stroke-width:1.32291663;stroke-linecap:round;stroke-linejoin:miter;stroke-miterlimit:4;stroke-dasharray:none;stroke-dashoffset:0;stroke-opacity:1;paint-order:stroke markers fill" />
      <circle
         r="10.016369"
         cy="187.62315"
         cx="14.37255"
         id="path2053-8"
         style="opacity:1;fill:#ffffff;fill-opacity:1;stroke:#ffcc00;stroke-width:1.32291663;stroke-linecap:round;stroke-linejoin:miter;stroke-miterlimit:4;stroke-dasharray:none;stroke-dashoffset:0;stroke-opacity:1;paint-order:stroke markers fill" />
      <circle
         r="17.779055"
         cy="176.85081"
         cx="40.641888"
         id="path2053-6-6-8"
         style="opacity:1;fill:#ffffff;fill-opacity:1;stroke:#ffcc00;stroke-width:1.32291663;stroke-linecap:round;stroke-linejoin:miter;stroke-miterlimit:4;stroke-dasharray:none;stroke-dashoffset:0;stroke-opacity:1;paint-order:stroke markers fill" />
    </g>
    <path
       inkscape:connector-curvature="0"
       style="opacity:1;fill:#0066ff;fill-opacity:1;stroke:#003380;stroke-width:1.35803831;stroke-linecap:round;stroke-linejoin:miter;stroke-miterlimit:4;stroke-dasharray:none;stroke-dashoffset:0;stroke-opacity:1;paint-order:stroke markers fill"
       d="m 122.86388,97.614053 a 17.779054,17.779054 0 0 0 -11.79034,-22.207535 17.779054,17.779054 0 0 0 -0.46909,-0.118334 10.28229,10.28229 0 0 0 -0.12352,-0.04484 10.28229,10.28229 0 0 0 -12.843311,6.818464 10.28229,10.28229 0 0 0 6.818331,12.843781 10.28229,10.28229 0 0 0 6.87885,-0.309194 11.257335,11.257335 0 0 1 -0.20597,0.148186 11.257335,11.257335 0 0 1 -0.67041,0.386948 17.779054,17.779054 0 0 1 0.63341,0.113035 17.779054,17.779054 0 0 1 1.21511,0.325902 17.779054,17.779054 0 0 1 1.67113,0.605057 17.779054,17.779054 0 0 1 1.60209,0.76872 17.779054,17.779054 0 0 1 1.51812,0.924594 17.779054,17.779054 0 0 1 1.41725,1.072051 17.779054,17.779054 0 0 1 1.30369,1.208052 17.779054,17.779054 0 0 1 1.17661,1.33178 17.779054,17.779054 0 0 1 0.072,0.0999 17.779054,17.779054 0 0 0 1.79591,-3.966493 z"
       id="path2053-8-0-4"
       inkscape:export-xdpi="96"
       inkscape:export-ydpi="96" />
    <path
       inkscape:connector-curvature="0"
       style="opacity:1;fill:#c83737;fill-opacity:1;stroke:#a02c2c;stroke-width:1.35803831;stroke-linecap:round;stroke-linejoin:miter;stroke-miterlimit:4;stroke-dasharray:none;stroke-dashoffset:0;stroke-opacity:1;paint-order:stroke markers fill"
       d="m 79.843621,143.6165 a 17.779054,17.779054 0 0 0 24.920029,-3.34347 17.779054,17.779054 0 0 0 0.27389,-0.39879 10.28229,10.28229 0 0 0 0.0849,-0.10028 10.28229,10.28229 0 0 0 -1.93343,-14.41193 10.28229,10.28229 0 0 0 -14.412316,1.93311 10.28229,10.28229 0 0 0 -2.099158,6.55803 11.257335,11.257335 0 0 1 -0.06742,-0.24461 11.257335,11.257335 0 0 1 -0.130012,-0.76304 17.779054,17.779054 0 0 1 -0.325977,0.5547 17.779054,17.779054 0 0 1 -0.727642,1.02629 17.779054,17.779054 0 0 1 -1.147804,1.35698 17.779054,17.779054 0 0 1 -1.277293,1.23538 17.779054,17.779054 0 0 1 -1.394281,1.10248 17.779054,17.779054 0 0 1 -1.49754,0.9567 17.779054,17.779054 0 0 1 -1.585632,0.80298 17.779054,17.779054 0 0 1 -1.657512,0.64082 17.779054,17.779054 0 0 1 -0.118739,0.0329 17.779054,17.779054 0 0 0 3.09585,3.0617 z"
       id="path2053-8-0-9"
       inkscape:export-xdpi="96"
       inkscape:export-ydpi="96" />
    <text
       xml:space="preserve"
       style="font-style:normal;font-variant:normal;font-weight:normal;font-stretch:normal;font-size:46.6920166px;line-height:1.25;font-family:Bungee;-inkscape-font-specification:Bungee;letter-spacing:0px;word-spacing:0px;opacity:0.129;fill:#000000;fill-opacity:1;stroke:none;stroke-width:1.16730034;"
       x="-63.166359"
       y="158.62633"
       id="text2276"
       transform="rotate(-45)"
       inkscape:export-xdpi="96"
       inkscape:export-ydpi="96"><tspan
         sodipodi:role="line"
         id="tspan2274"
         x="-63.166359"
         y="158.62633"
         style="font-style:normal;font-variant:normal;font-weight:normal;font-stretch:normal;font-family:Bungee;-inkscape-font-specification:Bungee;stroke-width:1.16730034;">WIP</tspan></text>
  </g>
</svg>
